# xmcd
#
# Track frame offsets: 
#        150
#        11760
#        23167
#        36382
#        48142
#        62950
#        77422
#        90087
#        101965
#        114800
#        126662
#        142767
#        159575
#        171530
#        185357
#        200232
#        214285
#        223485
#        237287
#        251490
#        265217
#        277687
#        289742
#        302687
#
# Disc length: 4194 seconds
#
# Revision: 0
# Processed by: cddbd v1.5.2PL0 Copyright (c) Steve Scherf et al.
# Submitted via: ExactAudioCopyFreeDBPlugin 1.0
#
DISCID=60106018
DTITLE=Various Artist - Chicago Blues -A Quarter Century- [CD1-Down Home C
DTITLE=hicago Blues-)
DYEAR=1900
DGENRE=Blues
TTITLE0=Johnny Shines - Ramblin'
TTITLE1=Johnny Shines - Fish Tail
TTITLE2=Johnny Shines - Cool Driver
TTITLE3=Johnny Shines - Ain't Doing No Good
TTITLE4=Floyd Jones - Dark Road
TTITLE5=Floyd Jones - On The Road Again
TTITLE6=Moody Jones - Rough Treatment
TTITLE7=Moody Jones - Why Should I Worry
TTITLE8=Moody Jones - Please Somebody
TTITLE9=Eddie Boyd - Five Long Years
TTITLE10=Eddie Boyd - Hard Head Woman
TTITLE11=J.T. Brown - My Gal Went Away
TTITLE12=J.T. Brown - Soup Line
TTITLE13=Memphis Minnie - Kissing In The Dark
TTITLE14=Son Joe - I'd Write A Letter
TTITLE15=Little Brother Montgomery - Keep On Drinkin'
TTITLE16=Memphis Slim - Brack Cat Crossed My Trail
TTITLE17=Baby Face Leroy - Blues Is Killing Me
TTITLE18=Baby Face Leroy - Late Hours At Midnight
TTITLE19=Baby Face Leroy - Pet Rabbit
TTITLE20=John Lee Henry - Knockin' On Lula Mae's Door
TTITLE21=John Lee Henry - Rhythm Rockin' Boogie
TTITLE22=J.B. Lenoir - Let It Roll
TTITLE23=John Brim - Hard Pill To Swallow
EXTD=
EXTT0=
EXTT1=
EXTT2=
EXTT3=
EXTT4=
EXTT5=
EXTT6=
EXTT7=
EXTT8=
EXTT9=
EXTT10=
EXTT11=
EXTT12=
EXTT13=
EXTT14=
EXTT15=
EXTT16=
EXTT17=
EXTT18=
EXTT19=
EXTT20=
EXTT21=
EXTT22=
EXTT23=
PLAYORDER=
